<svg xmlns="http://www.w3.org/2000/svg" width="36" height="36" viewBox="0 0 24 24" fill="none">
<symbol id="icon-drag" viewBox="0 0 24 24">
    <path d="M14.25 7.5C14.25 8.29565 13.9339 9.05871 13.3713 9.62132C12.8087 10.1839 12.0456 10.5 11.25 10.5C10.4544 10.5 9.69129 10.1839 9.12868 9.62132C8.56607 9.05871 8.25 8.29565 8.25 7.5C8.25 6.70435 8.56607 5.94129 9.12868 5.37868C9.69129 4.81607 10.4544 4.5 11.25 4.5C12.0456 4.5 12.8087 4.81607 13.3713 5.37868C13.9339 5.94129 14.25 6.70435 14.25 7.5ZM11.25 21C12.0456 21 12.8087 20.6839 13.3713 20.1213C13.9339 19.5587 14.25 18.7956 14.25 18C14.25 17.2044 13.9339 16.4413 13.3713 15.8787C12.8087 15.3161 12.0456 15 11.25 15C10.4544 15 9.69129 15.3161 9.12868 15.8787C8.56607 16.4413 8.25 17.2044 8.25 18C8.25 18.7956 8.56607 19.5587 9.12868 20.1213C9.69129 20.6839 10.4544 21 11.25 21ZM11.25 31.5C12.0456 31.5 12.8087 31.1839 13.3713 30.6213C13.9339 30.0587 14.25 29.2956 14.25 28.5C14.25 27.7044 13.9339 26.9413 13.3713 26.3787C12.8087 25.8161 12.0456 25.5 11.25 25.5C10.4544 25.5 9.69129 25.8161 9.12868 26.3787C8.56607 26.9413 8.25 27.7044 8.25 28.5C8.25 29.2956 8.56607 30.0587 9.12868 30.6213C9.69129 31.1839 10.4544 31.5 11.25 31.5ZM27.75 7.5C27.75 8.29565 27.4339 9.05871 26.8713 9.62132C26.3087 10.1839 25.5456 10.5 24.75 10.5C23.9544 10.5 23.1913 10.1839 22.6287 9.62132C22.0661 9.05871 21.75 8.29565 21.75 7.5C21.75 6.70435 22.0661 5.94129 22.6287 5.37868C23.1913 4.81607 23.9544 4.5 24.75 4.5C25.5456 4.5 26.3087 4.81607 26.8713 5.37868C27.4339 5.94129 27.75 6.70435 27.75 7.5ZM24.75 21C25.5456 21 26.3087 20.6839 26.8713 20.1213C27.4339 19.5587 27.75 18.7956 27.75 18C27.75 17.2044 27.4339 16.4413 26.8713 15.8787C26.3087 15.3161 25.5456 15 24.75 15C23.9544 15 23.1913 15.3161 22.6287 15.8787C22.0661 16.4413 21.75 17.2044 21.75 18C21.75 18.7956 22.0661 19.5587 22.6287 20.1213C23.1913 20.6839 23.9544 21 24.75 21ZM24.75 31.5C25.5456 31.5 26.3087 31.1839 26.8713 30.6213C27.4339 30.0587 27.75 29.2956 27.75 28.5C27.75 27.7044 27.4339 26.9413 26.8713 26.3787C26.3087 25.8161 25.5456 25.5 24.75 25.5C23.9544 25.5 23.1913 25.8161 22.6287 26.3787C22.0661 26.9413 21.75 27.7044 21.75 28.5C21.75 29.2956 22.0661 30.0587 22.6287 30.6213C23.1913 31.1839 23.9544 31.5 24.75 31.5Z"/>
</symbol>

  <symbol id="icon-shape" viewBox="0 0 36 36">
    <path d="M3 3H16.5V16.5H3V3ZM26.25 3C30 3 33 6 33 9.75C33 13.5 30 16.5 26.25 16.5C22.5 16.5 19.5 13.5 19.5 9.75C19.5 6 22.5 3 26.25 3ZM9.75 21L16.5 33H3L9.75 21ZM28.5 25.5H33V28.5H28.5V33H25.5V28.5H21V25.5H25.5V21H28.5V25.5Z" fill="#ACACAC"/>
  </symbol>

  <symbol id="icon-selected-no" viewBox="0 0 36 36">
    <path d="M25.5 4.5H10.5C7.18629 4.5 4.5 7.18629 4.5 10.5V25.5C4.5 28.8137 7.18629 31.5 10.5 31.5H25.5C28.8137 31.5 31.5 28.8137 31.5 25.5V10.5C31.5 7.18629 28.8137 4.5 25.5 4.5Z" stroke="#ACACAC" stroke-width="2" stroke-linejoin="round"/>
  </symbol>

  <symbol id="icon-selected-yes" viewBox="0 36 36">
    <path d="M25.5 4.5H10.5C7.18629 4.5 4.5 7.18629 4.5 10.5V25.5C4.5 28.8137 7.18629 31.5 10.5 31.5H25.5C28.8137 31.5 31.5 28.8137 31.5 25.5V10.5C31.5 7.18629 28.8137 4.5 25.5 4.5Z" fill="#ACACAC" stroke="#ACACAC" stroke-width="2" stroke-linejoin="round"/>
  </symbol>

  <symbol id="icon-add" viewBox="0 0 36 36">
    <path d="M28.5 19.497H19.5V28.497H16.5V19.497H7.5V16.497H16.5V7.49701H19.5V16.497H28.5V19.497Z" fill="#ACACAC"/>
  </symbol>

  <symbol id="icon-komponent" viewBox="0 0 24 24">
    <path d="M2 3H22V7H2V3ZM19 8H3V19C3 19.5304 3.21071 20.0391 3.58579 20.4142C3.96086 20.7893 4.46957 21 5 21H19C19.5304 21 20.0391 20.7893 20.4142 20.4142C20.7893 20.0391 21 19.5304 21 19V8H19ZM16 14H8V12H16V14Z" fill="#ACACAC"/>
  </symbol>

  <symbol id="icon-text" viewBox="0 0 24 24">
    <path fill-rule="evenodd" clip-rule="evenodd" d="M4 3H20C20.2652 3 20.5196 3.10536 20.7071 3.29289C20.8946 3.48043 21 3.73478 21 4V20C21 20.2652 20.8946 20.5196 20.7071 20.7071C20.5196 20.8946 20.2652 21 20 21H4C3.73478 21 3.48043 20.8946 3.29289 20.7071C3.10536 20.5196 3 20.2652 3 20V4C3 3.73478 3.10536 3.48043 3.29289 3.29289C3.48043 3.10536 3.73478 3 4 3ZM4.2 4.2V19.8H19.8V4.2H4.2ZM12.6 8.7V17.5H11.4V8.7H7.5V7.5H16.5V8.7H12.6Z" fill="#ACACAC"/>
  </symbol>

    <symbol id="icon-image" viewBox="0 0 24 24">
      <path d="M8.5 13.5L11 16.5L14.5 12L19 18H5M21 19V5C21 4.46957 20.7893 3.96086 20.4142 3.58579C20.0391 3.21071 19.5304 3 19 3H5C4.46957 3 3.96086 3.21071 3.58579 3.58579C3.21071 3.96086 3 4.46957 3 5V19C3 19.5304 3.21071 20.0391 3.58579 20.4142C3.96086 20.7893 4.46957 21 5 21H19C19.5304 21 20.0391 20.7893 20.4142 20.4142C20.7893 20.0391 21 19.5304 21 19Z" fill="#ACACAC"/>
    </symbol>

    <symbol id="icon-progress" viewBox="0 0 24 24">
      <path d="M9.99999 20.777C9.12986 20.5787 8.29404 20.2522 7.51999 19.808M14 3.22299C15.9881 3.67706 17.7632 4.79268 19.0346 6.3872C20.306 7.98171 20.9984 9.96064 20.9984 12C20.9984 14.0393 20.306 16.0183 19.0346 17.6128C17.7632 19.2073 15.9881 20.3229 14 20.777M4.57899 17.093C4.03408 16.3001 3.61983 15.425 3.35199 14.501M3.12399 10.5C3.28399 9.54999 3.59199 8.64999 4.02399 7.82499L4.19299 7.51999M6.90699 4.57899C7.84319 3.93587 8.89266 3.47577 9.99999 3.22299" stroke="#ACACAC" stroke-width="2" stroke-linecap="round" stroke-linejoin="round" fill="none"/>
    </symbol>

    <symbol id="icon-morphing-text" viewBox="0 0 24 24">
      <path d="M5 8H7V6H10.252L7.68 18H5V20H13V18H10.748L13.32 6H17V8H19V4H5V8Z" fill="#ACACAC"/>
    </symbol>

    <symbol id="icon-series" viewBox="0 0 24 24">
      <g clip-path="url(#clip0_7_74)">
        <path d="M5.7 4.575H24V6.465H5.7V4.575ZM5.7 11.01H24V12.9H5.7V11.01ZM5.7 17.55H24V19.44H5.7V17.55ZM1.875 3.75C2.35786 3.73787 2.82594 3.91713 3.17717 4.24869C3.52841 4.58026 3.73432 5.03724 3.75 5.52C3.73046 6.00011 3.52287 6.45328 3.17206 6.78164C2.82124 7.11 2.35536 7.28721 1.875 7.275C1.39464 7.28721 0.928755 7.11 0.577941 6.78164C0.227127 6.45328 0.0195371 6.00011 -7.6741e-07 5.52C0.0156834 5.03724 0.22159 4.58026 0.572826 4.24869C0.924061 3.91713 1.39214 3.73787 1.875 3.75ZM1.875 10.2C2.12012 10.1774 2.36727 10.2061 2.60065 10.2844C2.83403 10.3627 3.04852 10.4888 3.23041 10.6546C3.4123 10.8205 3.5576 11.0225 3.65701 11.2477C3.75642 11.4729 3.80777 11.7163 3.80777 11.9625C3.80777 12.2087 3.75642 12.4521 3.65701 12.6773C3.5576 12.9025 3.4123 13.1045 3.23041 13.2704C3.04852 13.4362 2.83403 13.5623 2.60065 13.6406C2.36727 13.7189 2.12012 13.7476 1.875 13.725C1.62988 13.7476 1.38273 13.7189 1.14935 13.6406C0.915966 13.5623 0.701477 13.4362 0.519586 13.2704C0.337696 13.1045 0.192403 12.9025 0.0929897 12.6773C-0.00642312 12.4521 -0.0577698 12.2087 -0.0577698 11.9625C-0.0577698 11.7163 -0.00642312 11.4729 0.0929897 11.2477C0.192403 11.0225 0.337696 10.8205 0.519586 10.6546C0.701477 10.4888 0.915966 10.3627 1.14935 10.2844C1.38273 10.2061 1.62988 10.1774 1.875 10.2ZM1.875 16.725C2.12012 16.7024 2.36727 16.7311 2.60065 16.8094C2.83403 16.8877 3.04852 17.0138 3.23041 17.1796C3.4123 17.3455 3.5576 17.5475 3.65701 17.7727C3.75642 17.9979 3.80777 18.2413 3.80777 18.4875C3.80777 18.7337 3.75642 18.9771 3.65701 19.2023C3.5576 19.4275 3.4123 19.6295 3.23041 19.7954C3.04852 19.9612 2.83403 20.0873 2.60065 20.1656C2.36727 20.2439 2.12012 20.2726 1.875 20.25C1.62988 20.2726 1.38273 20.2439 1.14935 20.1656C0.915966 20.0873 0.701477 19.9612 0.519586 19.7954C0.337696 19.6295 0.192403 19.4275 0.0929897 19.2023C-0.00642312 18.9771 -0.0577698 18.7337 -0.0577698 18.4875C-0.0577698 18.2413 -0.00642312 17.9979 0.0929897 17.7727C0.192403 17.5475 0.337696 17.3455 0.519586 17.1796C0.701477 17.0138 0.915966 16.8877 1.14935 16.8094C1.38273 16.7311 1.62988 16.7024 1.875 16.725Z" fill="#ACACAC"/>
      </g>   
    </symbol>

    <symbol id="icon-overlap-group" viewBox="0 0 24 24">
      <path d="M1 1V5H2V19H1V23H5V22H19V23H23V19H22V5H23V1H19V2H5V1M5 4H19V5H20V19H19V20H5V19H4V5H5M6 6V14H9V18H18V9H14V6M8 8H12V12H8M14 11H16V16H11V14H14" fill="#ACACAC"/>
    </symbol>

    <symbol id="icon-stack-group" viewBox="0 0 24 24">
      <g clip-path="url(#clip0_152_113)">
        <path d="M4.61538 0C3.08677 0 2.42308 1.31262 1.84615 2.76923L0.0572308 7.61538C0.319385 7.47138 0.603692 7.38462 0.923077 7.38462H23.0769C23.3963 7.38462 23.6806 7.47138 23.9428 7.61538L22.1538 2.76923C21.5049 1.356 20.9132 0 19.3846 0H4.61538ZM0.923077 8.30769C0.414462 8.30769 0 8.72215 0 9.23077V12C0 12.5086 0.414462 12.9231 0.923077 12.9231H23.0769C23.5855 12.9231 24 12.5086 24 12V9.23077C24 8.72215 23.5855 8.30769 23.0769 8.30769H0.923077ZM20.7692 9.23077C20.9511 9.23083 21.1312 9.26672 21.2992 9.33638C21.4673 9.40604 21.6199 9.50812 21.7485 9.63677C21.8771 9.76543 21.979 9.91816 22.0486 10.0862C22.1181 10.2543 22.1539 10.4344 22.1538 10.6163C22.1538 10.7982 22.1179 10.9783 22.0482 11.1463C21.9786 11.3143 21.8765 11.467 21.7478 11.5956C21.6192 11.7241 21.4665 11.8261 21.2984 11.8957C21.1303 11.9652 20.9502 12.001 20.7683 12.0009C20.401 12.0008 20.0487 11.8548 19.789 11.5949C19.5294 11.3351 19.3836 10.9827 19.3837 10.6154C19.3838 10.248 19.5299 9.89579 19.7897 9.63612C20.0495 9.37646 20.4019 9.23065 20.7692 9.23077ZM0.923077 13.8462C0.414462 13.8462 0 14.2606 0 14.7692V17.5385C0 18.0471 0.414462 18.4615 0.923077 18.4615H23.0769C23.5855 18.4615 24 18.0471 24 17.5385V14.7692C24 14.2606 23.5855 13.8462 23.0769 13.8462H0.923077ZM20.7692 14.7692C20.9511 14.7693 21.1312 14.8052 21.2992 14.8748C21.4673 14.9445 21.6199 15.0466 21.7485 15.1752C21.8771 15.3039 21.979 15.4566 22.0486 15.6247C22.1181 15.7928 22.1539 15.9729 22.1538 16.1548C22.1538 16.3367 22.1179 16.5168 22.0482 16.6848C21.9786 16.8528 21.8765 17.0055 21.7478 17.134C21.6192 17.2626 21.4665 17.3646 21.2984 17.4341C21.1303 17.5037 20.9502 17.5394 20.7683 17.5394C20.401 17.5393 20.0487 17.3932 19.789 17.1334C19.5294 16.8735 19.3836 16.5212 19.3837 16.1538C19.3838 15.7865 19.5299 15.4342 19.7897 15.1746C20.0495 14.9149 20.4019 14.7691 20.7692 14.7692ZM0.923077 19.3846C0.414462 19.3846 0 19.7991 0 20.3077V23.0769C0 23.5855 0.414462 24 0.923077 24H23.0769C23.5855 24 24 23.5855 24 23.0769V20.3077C24 19.7991 23.5855 19.3846 23.0769 19.3846H0.923077ZM20.7692 20.3077C20.9511 20.3078 21.1312 20.3436 21.2992 20.4133C21.4673 20.483 21.6199 20.585 21.7485 20.7137C21.8771 20.8424 21.979 20.9951 22.0486 21.1632C22.1181 21.3312 22.1539 21.5113 22.1538 21.6932C22.1538 21.8751 22.1179 22.0552 22.0482 22.2232C21.9786 22.3913 21.8765 22.5439 21.7478 22.6725C21.6192 22.8011 21.4665 22.903 21.2984 22.9726C21.1303 23.0421 20.9502 23.0779 20.7683 23.0778C20.401 23.0777 20.0487 22.9317 19.789 22.6718C19.5294 22.412 19.3836 22.0597 19.3837 21.6923C19.3838 21.325 19.5299 20.9727 19.7897 20.713C20.0495 20.4534 20.4019 20.3076 20.7692 20.3077Z" fill="#ACACAC"/>
      </g>    
    </symbol>

    <symbol id="icon-animated-image" viewBox="0 0 24 24">
      <path d="M2 20V4H4L6 8H9L7 4H9L11 8H14L12 4H14L16 8H19L17 4H22V20H2Z" fill="#ACACAC"/>
    </symbol>

    <symbol id="icon-delete" viewBox="0 0 24 24">
      <path d="M3 18C2.45 18 1.97933 17.8043 1.588 17.413C1.19667 17.0217 1.00067 16.5507 1 16V3H0V1H5V0H11V1H16V3H15V16C15 16.55 14.8043 17.021 14.413 17.413C14.0217 17.805 13.5507 18.0007 13 18H3ZM5 14H7V5H5V14ZM9 14H11V5H9V14Z" fill="#ACACAC"/>
    </symbol>

    <symbol id="icon-skip" viewBox="0 0 36 36">
      <path d="M16.4922 20.3822C18.5026 19.3436 18.5026 16.6563 16.4922 15.6177L4.35368 9.34665C2.40184 8.33778 0 9.65175 0 11.7298V24.2701C0 26.349 2.40071 27.6621 4.35368 26.6532L16.4922 20.3822Z" fill="#ACACAC"/>
      <path d="M32.4922 20.3822C34.5026 19.3436 34.5026 16.6563 32.4922 15.6177L20.3537 9.34665C18.4018 8.33778 16 9.65175 16 11.7298V24.2701C16 26.349 18.4007 27.6621 20.3537 26.6532L32.4922 20.3822Z" fill="#ACACAC"/>
    </symbol>

    <symbol id="icon-plus" viewBox="0 0 36 36">
      <path d="M28.5 19.4969H19.5V28.4969H16.5V19.4969H7.5V16.4969H16.5V7.49695H19.5V16.4969H28.5V19.4969Z" fill="#ACACAC"/>
    </symbol> 

    <symbol id="icon-minus" viewBox="0 0 36 36">
      <path d="M7.5 18H28.5" stroke="#ACACAC" stroke-width="3" stroke-linecap="round" stroke-linejoin="round" />
    </symbol>

</svg>









